<svg width="331" height="100" viewBox="0 0 331 100" fill="none" xmlns="http://www.w3.org/2000/svg">
<path d="M46.5 99.3125C39.2917 99.3125 32.9375 98.0625 27.4375 95.5625C21.9792 93.0625 17.7292 89.4375 14.6875 84.6875C11.6458 79.9375 10.125 74.1667 10.125 67.375V19.875L0.4375 18V7H38.125V18L28.375 19.875V67.375C28.375 71.375 29.1042 74.7083 30.5625 77.375C32.0208 80.0417 34.1042 82.0417 36.8125 83.375C39.5208 84.6667 42.75 85.3125 46.5 85.3125C50.3333 85.3125 53.6042 84.6667 56.3125 83.375C59.0625 82.0417 61.1667 80.0417 62.625 77.375C64.0833 74.7083 64.8125 71.375 64.8125 67.375V19.875L55.125 18V7H92.8125V18L83.0625 19.875V67.375C83.0625 74.1667 81.5208 79.9583 78.4375 84.75C75.3958 89.5 71.125 93.125 65.625 95.625C60.1667 98.0833 53.7917 99.3125 46.5 99.3125ZM125.188 99.3125C119.812 99.3125 115.188 97.9375 111.312 95.1875C107.479 92.3958 104.542 88.5208 102.5 83.5625C100.458 78.5625 99.4375 72.7292 99.4375 66.0625V64.75C99.4375 57.625 100.458 51.3958 102.5 46.0625C104.583 40.7292 107.542 36.5833 111.375 33.625C115.208 30.625 119.792 29.125 125.125 29.125C128.833 29.125 132.083 29.875 134.875 31.375C137.667 32.8333 140.083 34.9167 142.125 37.625V13.375L132.375 11.5V0.5H142.125H160.375V85.1875L169.125 87.0625V98H144.562L143.188 89.75C141.062 92.875 138.521 95.25 135.562 96.875C132.646 98.5 129.188 99.3125 125.188 99.3125ZM130.625 85.125C133.167 85.125 135.396 84.5833 137.312 83.5C139.229 82.4167 140.833 80.8542 142.125 78.8125V50.125C140.875 47.9583 139.292 46.2917 137.375 45.125C135.458 43.9167 133.25 43.3125 130.75 43.3125C127.708 43.3125 125.208 44.2292 123.25 46.0625C121.333 47.8542 119.917 50.3542 119 53.5625C118.125 56.7708 117.688 60.5 117.688 64.75V66.0625C117.688 71.9792 118.688 76.6458 120.688 80.0625C122.688 83.4375 126 85.125 130.625 85.125ZM207.188 99.3125C200.729 99.3125 195.083 97.8958 190.25 95.0625C185.417 92.1875 181.667 88.25 179 83.25C176.375 78.25 175.062 72.5417 175.062 66.125V63.625C175.062 56.9167 176.312 50.9792 178.812 45.8125C181.312 40.6042 184.833 36.5208 189.375 33.5625C193.958 30.5625 199.354 29.0833 205.562 29.125C211.688 29.125 216.833 30.3333 221 32.75C225.167 35.1667 228.333 38.6458 230.5 43.1875C232.667 47.7292 233.75 53.2292 233.75 59.6875V69.625H194L193.875 70C194.125 72.9583 194.854 75.6042 196.062 77.9375C197.312 80.2292 199.062 82.0417 201.312 83.375C203.562 84.6667 206.292 85.3125 209.5 85.3125C212.833 85.3125 215.938 84.8958 218.812 84.0625C221.729 83.1875 224.562 81.9167 227.312 80.25L232.25 91.5C229.458 93.75 225.938 95.625 221.688 97.125C217.479 98.5833 212.646 99.3125 207.188 99.3125ZM194.125 57.5625H216.688V55.9375C216.688 53.1875 216.312 50.8333 215.562 48.875C214.854 46.875 213.688 45.3333 212.062 44.25C210.479 43.1667 208.417 42.625 205.875 42.625C203.458 42.625 201.417 43.2708 199.75 44.5625C198.083 45.8125 196.771 47.5417 195.812 49.75C194.896 51.9583 194.271 54.4583 193.938 57.25L194.125 57.5625ZM240.812 98V87.0625L247.312 86.125L276.25 7H294.938L323.688 86.125L330.188 87.0625V98H299.188V87.0625L305.5 85.9375L301.5 73.4375H269.5L265.5 85.9375L271.812 87.0625V98H240.812ZM273.812 60H297.188L286.562 28.8125L285.688 26.0625H285.312L284.375 29L273.812 60Z" fill="white"/>
</svg>